<svg id="Layer_1" data-name="Layer 1" xmlns="http://www.w3.org/2000/svg" viewBox="0 0 772.09 229.49"><defs><style>.cls-1{fill:#c9c9c9;}</style></defs><path class="cls-1" d="M83.18,190.24c-.44-1.25-1.94-2.34-.79-3.83,1.34-1.73,3-.54,4.45-.15C87.54,189.67,86.31,191,83.18,190.24Z"/><path class="cls-1" d="M80,68.42a2.34,2.34,0,0,1,2.44,2.38,1.73,1.73,0,0,1-1.64,2c-1.36.14-2.49-.33-2.66-2A2.11,2.11,0,0,1,80,68.42Z"/><path class="cls-1" d="M80.61,86a2,2,0,0,1-1.81-2.37c.1-1.31.78-2.25,2-2.2,1.45.06,2.17,1.13,2,2.67A2,2,0,0,1,80.61,86Z"/><path class="cls-1" d="M83.4,96.79a2,2,0,0,1-2.32,1.85A2,2,0,0,1,79,96.51a1.93,1.93,0,0,1,2-2.13A2.33,2.33,0,0,1,83.4,96.79Z"/><path class="cls-1" d="M81.83,120.41a2,2,0,0,1,2.08,2.07c.09,1.3-.41,2.33-1.68,2.45-1.42.14-2.3-.71-2.37-2.28C79.8,121.25,80.7,120.67,81.83,120.41Z"/><path class="cls-1" d="M85.53,161.85c-.18,1.29-.83,2.18-2.07,2.14a2.2,2.2,0,0,1-2.27-2.49c0-1.45,1-1.91,2.23-1.81A2.18,2.18,0,0,1,85.53,161.85Z"/><path class="cls-1" d="M83.8,109.64c-.17,1.65-1,2.25-2.16,2.23a1.87,1.87,0,0,1-1.93-2.15c0-1.54.76-2.46,2.27-2.19A2.14,2.14,0,0,1,83.8,109.64Z"/><path class="cls-1" d="M81.58,44.56c0,1.6-.75,2.27-1.94,2.35a1.89,1.89,0,0,1-2.22-1.84,2,2,0,0,1,1.92-2.22C80.55,42.71,81.2,43.62,81.58,44.56Z"/><path class="cls-1" d="M82.34,133.77c1.2.06,2.26.61,2.22,2.22a2,2,0,0,1-2.1,2,2.08,2.08,0,0,1-2.07-2.09C80.22,134.51,81,133.87,82.34,133.77Z"/><path class="cls-1" d="M82.57,151.05a2,2,0,0,1-1.72-2.34,1.89,1.89,0,0,1,2.16-1.9c1.27.07,1.87.94,1.72,2.27A2,2,0,0,1,82.57,151.05Z"/><path class="cls-1" d="M85.64,174.66c0,1.39-.49,2.26-1.76,2.31A1.94,1.94,0,0,1,81.73,175a1.84,1.84,0,0,1,1.77-2.26C84.73,172.68,85.42,173.43,85.64,174.66Z"/><path class="cls-1" d="M80,59.76a2,2,0,0,1-2-2.24,1.84,1.84,0,0,1,2.14-2,1.87,1.87,0,0,1,1.73,1.94A2,2,0,0,1,80,59.76Z"/><path class="cls-1" d="M270.52,190.24c-.43-1.25-1.94-2.34-.79-3.83,1.35-1.73,2.95-.54,4.46-.15C274.88,189.67,273.66,191,270.52,190.24Z"/><path class="cls-1" d="M267.33,68.42a2.33,2.33,0,0,1,2.43,2.38,1.72,1.72,0,0,1-1.64,2c-1.35.14-2.48-.33-2.65-2A2.11,2.11,0,0,1,267.33,68.42Z"/><path class="cls-1" d="M268,86a2,2,0,0,1-1.8-2.37c.09-1.31.78-2.25,2-2.2,1.45.06,2.17,1.13,2,2.67A2,2,0,0,1,268,86Z"/><path class="cls-1" d="M270.75,96.79a2,2,0,0,1-2.32,1.85,2,2,0,0,1-2.07-2.13,1.93,1.93,0,0,1,2.05-2.13A2.33,2.33,0,0,1,270.75,96.79Z"/><path class="cls-1" d="M269.17,120.41a2,2,0,0,1,2.08,2.07c.09,1.3-.4,2.33-1.67,2.45-1.43.14-2.3-.71-2.37-2.28C267.15,121.25,268,120.67,269.17,120.41Z"/><path class="cls-1" d="M272.88,161.85c-.19,1.29-.83,2.18-2.08,2.14a2.19,2.19,0,0,1-2.26-2.49c0-1.45,1-1.91,2.23-1.81A2.19,2.19,0,0,1,272.88,161.85Z"/><path class="cls-1" d="M271.15,109.64c-.17,1.65-1,2.25-2.16,2.23a1.86,1.86,0,0,1-1.93-2.15c0-1.54.76-2.46,2.27-2.19A2.16,2.16,0,0,1,271.15,109.64Z"/><path class="cls-1" d="M268.93,44.56c0,1.6-.76,2.27-1.95,2.35a1.88,1.88,0,0,1-2.21-1.84,2,2,0,0,1,1.92-2.22C267.89,42.71,268.54,43.62,268.93,44.56Z"/><path class="cls-1" d="M269.68,133.77c1.21.06,2.27.61,2.22,2.22a2,2,0,0,1-2.09,2,2.08,2.08,0,0,1-2.07-2.09C267.57,134.51,268.32,133.87,269.68,133.77Z"/><path class="cls-1" d="M269.92,151.05a2,2,0,0,1-1.73-2.34,1.9,1.9,0,0,1,2.16-1.9c1.27.07,1.87.94,1.73,2.27A2,2,0,0,1,269.92,151.05Z"/><path class="cls-1" d="M273,174.66c0,1.39-.48,2.26-1.76,2.31a1.94,1.94,0,0,1-2.15-1.94,1.85,1.85,0,0,1,1.78-2.26C272.07,172.68,272.76,173.43,273,174.66Z"/><path class="cls-1" d="M267.33,59.76a2,2,0,0,1-2-2.24,1.83,1.83,0,0,1,2.13-2,1.88,1.88,0,0,1,1.74,1.94A2,2,0,0,1,267.33,59.76Z"/><path class="cls-1" d="M445.92,190.24c-.44-1.25-1.94-2.34-.79-3.83,1.34-1.73,2.95-.54,4.45-.15C450.28,189.67,449.05,191,445.92,190.24Z"/><path class="cls-1" d="M442.72,68.42a2.34,2.34,0,0,1,2.44,2.38,1.73,1.73,0,0,1-1.64,2c-1.36.14-2.49-.33-2.66-2A2.11,2.11,0,0,1,442.72,68.42Z"/><path class="cls-1" d="M443.35,86a2,2,0,0,1-1.81-2.37c.1-1.31.78-2.25,2-2.2,1.45.06,2.17,1.13,2,2.67A2,2,0,0,1,443.35,86Z"/><path class="cls-1" d="M446.14,96.79a2,2,0,0,1-2.32,1.85,2,2,0,0,1-2.06-2.13,1.93,1.93,0,0,1,2-2.13A2.33,2.33,0,0,1,446.14,96.79Z"/><path class="cls-1" d="M444.57,120.41a2,2,0,0,1,2.08,2.07c.09,1.3-.41,2.33-1.68,2.45-1.42.14-2.3-.71-2.37-2.28C442.54,121.25,443.44,120.67,444.57,120.41Z"/><path class="cls-1" d="M448.27,161.85c-.18,1.29-.83,2.18-2.07,2.14a2.2,2.2,0,0,1-2.27-2.49c0-1.45,1-1.91,2.23-1.81A2.18,2.18,0,0,1,448.27,161.85Z"/><path class="cls-1" d="M446.54,109.64c-.17,1.65-1,2.25-2.16,2.23a1.87,1.87,0,0,1-1.93-2.15c0-1.54.76-2.46,2.27-2.19A2.14,2.14,0,0,1,446.54,109.64Z"/><path class="cls-1" d="M444.32,44.56c0,1.6-.75,2.27-1.94,2.35a1.89,1.89,0,0,1-2.22-1.84,2,2,0,0,1,1.92-2.22C443.29,42.71,443.94,43.62,444.32,44.56Z"/><path class="cls-1" d="M445.08,133.77c1.2.06,2.26.61,2.22,2.22a2,2,0,0,1-2.1,2,2.08,2.08,0,0,1-2.07-2.09C443,134.51,443.72,133.87,445.08,133.77Z"/><path class="cls-1" d="M445.31,151.05a2,2,0,0,1-1.72-2.34,1.89,1.89,0,0,1,2.16-1.9c1.27.07,1.87.94,1.72,2.27A2,2,0,0,1,445.31,151.05Z"/><path class="cls-1" d="M448.38,174.66c.05,1.39-.49,2.26-1.76,2.31a1.94,1.94,0,0,1-2.15-1.94,1.84,1.84,0,0,1,1.77-2.26C447.47,172.68,448.16,173.43,448.38,174.66Z"/><path class="cls-1" d="M442.72,59.76a2,2,0,0,1-2-2.24,1.84,1.84,0,0,1,2.14-2,1.87,1.87,0,0,1,1.73,1.94A2,2,0,0,1,442.72,59.76Z"/><path class="cls-1" d="M633.26,190.24c-.43-1.25-1.94-2.34-.79-3.83,1.35-1.73,2.95-.54,4.46-.15C637.62,189.67,636.4,191,633.26,190.24Z"/><path class="cls-1" d="M630.07,68.42a2.33,2.33,0,0,1,2.43,2.38,1.72,1.72,0,0,1-1.64,2c-1.35.14-2.48-.33-2.65-2A2.11,2.11,0,0,1,630.07,68.42Z"/><path class="cls-1" d="M630.69,86a2,2,0,0,1-1.8-2.37c.09-1.31.78-2.25,2-2.2,1.45.06,2.17,1.13,2,2.67A2,2,0,0,1,630.69,86Z"/><path class="cls-1" d="M633.49,96.79a2,2,0,0,1-2.32,1.85,2,2,0,0,1-2.07-2.13,1.93,1.93,0,0,1,2-2.13A2.33,2.33,0,0,1,633.49,96.79Z"/><path class="cls-1" d="M631.91,120.41a2,2,0,0,1,2.08,2.07c.09,1.3-.4,2.33-1.67,2.45-1.42.14-2.3-.71-2.37-2.28C629.89,121.25,630.78,120.67,631.91,120.41Z"/><path class="cls-1" d="M635.62,161.85c-.19,1.29-.83,2.18-2.08,2.14a2.19,2.19,0,0,1-2.26-2.49c0-1.45,1-1.91,2.23-1.81A2.19,2.19,0,0,1,635.62,161.85Z"/><path class="cls-1" d="M633.89,109.64c-.17,1.65-1,2.25-2.16,2.23a1.86,1.86,0,0,1-1.93-2.15c0-1.54.76-2.46,2.27-2.19A2.16,2.16,0,0,1,633.89,109.64Z"/><path class="cls-1" d="M631.67,44.56c0,1.6-.76,2.27-1.95,2.35a1.88,1.88,0,0,1-2.21-1.84,2,2,0,0,1,1.92-2.22C630.63,42.71,631.28,43.62,631.67,44.56Z"/><path class="cls-1" d="M632.42,133.77c1.21.06,2.27.61,2.22,2.22a2,2,0,0,1-2.09,2,2.08,2.08,0,0,1-2.07-2.09C630.31,134.51,631.06,133.87,632.42,133.77Z"/><path class="cls-1" d="M632.66,151.05a2,2,0,0,1-1.73-2.34,1.9,1.9,0,0,1,2.16-1.9c1.27.07,1.87.94,1.73,2.27A2,2,0,0,1,632.66,151.05Z"/><path class="cls-1" d="M635.72,174.66c0,1.39-.48,2.26-1.76,2.31a1.94,1.94,0,0,1-2.15-1.94,1.85,1.85,0,0,1,1.78-2.26C634.81,172.68,635.5,173.43,635.72,174.66Z"/><path class="cls-1" d="M630.07,59.76a2,2,0,0,1-2-2.24,1.83,1.83,0,0,1,2.13-2A1.88,1.88,0,0,1,632,57.48,2,2,0,0,1,630.07,59.76Z"/></svg>